<svg xmlns="http://www.w3.org/2000/svg" viewBox="0 0 64 64" id="cat-allowed"><path d="M30,63.5A30,30,0,1,1,41.49219,5.78027a1,1,0,0,1-.76563,1.84766,27.968,27.968,0,1,0,15.6377,16.418,1.00021,1.00021,0,1,1,1.88281-.67578A30.02153,30.02153,0,0,1,30,63.5Z"></path><path d="M51 26.5a13 13 0 1113-13A13.01505 13.01505 0 0151 26.5zm0-24a11 11 0 1011 11A11.01245 11.01245 0 0051 2.5zM30 55.5a17 17 0 1117-17A17.019 17.019 0 0130 55.5zm0-32a15 15 0 1015 15A15.01641 15.01641 0 0030 23.5z"></path><path d="M14,39.5a.99943.99943,0,0,1-1-1v-24a1,1,0,0,1,2,0v24A.99943.99943,0,0,1,14,39.5Z"></path><path d="M29.999 23.5a1.00108 1.00108 0 01-.44629-.10547l-16-8a1.00012 1.00012 0 11.89454-1.78906l16 8A1 1 0 0129.999 23.5zM46 39.5a.99943.99943 0 01-1-1v-14a1 1 0 012 0v14A.99943.99943 0 0146 39.5z"></path><path d="M30.001 23.5a1 1 0 01-.44825-1.89453l9.73243-4.86621a1.00011 1.00011 0 01.89453 1.78906l-9.73242 4.86621A1.00108 1.00108 0 0130.001 23.5zM25 42.5H9a1 1 0 010-2H25a1 1 0 010 2zM25 45.5H11a1 1 0 010-2H25a1 1 0 010 2zM25 48.5H13a1 1 0 010-2H25a1 1 0 010 2zM51 42.5H35a1 1 0 010-2H51a1 1 0 010 2zM49 45.5H35a1 1 0 010-2H49a1 1 0 010 2zM47 48.5H35a1 1 0 010-2H47a1 1 0 010 2zM49 18.5a.99676.99676 0 01-.707-.293l-4-4A.99989.99989 0 0145.707 12.793l4 4A1 1 0 0149 18.5z"></path><path d="M49,18.5a1,1,0,0,1-.707-1.707l8-8A.99989.99989,0,1,1,57.707,10.207l-8,8A.99676.99676,0,0,1,49,18.5Z"></path></svg>