<svg xmlns="http://www.w3.org/2000/svg" data-name="Cat paws" viewBox="0 0 64 64" id="cat-paws"><path d="M37.08 21.23c.23.04.46.06.69.06 1.03 0 2.03-.4 2.89-1.16.99-.87 1.67-2.13 1.92-3.54.25-1.41.04-2.83-.6-3.99-.67-1.23-1.74-2.03-3-2.25-1.26-.22-2.53.17-3.58 1.1-.99.87-1.67 2.13-1.92 3.54-.53 3 1.08 5.8 3.59 6.24zm-1.62-5.89c.17-.97.62-1.82 1.27-2.39.49-.43 1.04-.66 1.58-.66.11 0 .22 0 .33.03.65.11 1.21.56 1.59 1.24.42.76.55 1.71.38 2.68-.17.97-.62 1.82-1.27 2.39-.59.52-1.27.74-1.92.63-1.42-.25-2.31-2.01-1.97-3.92zM51.67 16.99c-1.22-.41-2.55-.22-3.75.55-1.12.72-2 1.88-2.46 3.25-.46 1.37-.47 2.82 0 4.08.49 1.33 1.43 2.29 2.65 2.71.42.14.84.21 1.26.21 2.07 0 4.13-1.59 4.94-4.01h0c.98-2.92-.2-5.96-2.64-6.78zm.74 6.14c-.63 1.87-2.28 3.01-3.67 2.54-.63-.21-1.13-.74-1.41-1.5-.3-.83-.29-1.81.03-2.75.32-.95.9-1.73 1.65-2.21.45-.29.93-.44 1.39-.44.22 0 .43.03.64.1 1.39.47 2.01 2.38 1.38 4.25zM23.34 20.14c.86.76 1.87 1.16 2.89 1.16.23 0 .46-.02.69-.06 2.51-.44 4.12-3.24 3.59-6.24-.25-1.41-.93-2.67-1.92-3.54-1.05-.93-2.33-1.32-3.58-1.1-1.26.22-2.32 1.02-3 2.25-.63 1.16-.85 2.57-.6 3.99.25 1.41.93 2.67 1.92 3.54zm.43-6.57c.38-.69.94-1.13 1.59-1.24.11-.02.22-.03.33-.03.54 0 1.09.23 1.58.66.65.57 1.1 1.42 1.27 2.39.34 1.91-.55 3.67-1.97 3.92-.64.12-1.33-.11-1.92-.63-.65-.57-1.1-1.42-1.27-2.39h0c-.17-.97-.03-1.92.38-2.68z"></path><path d="m58.2,17.67c-.42-1-1-1.87-1.69-2.62.95-3.47.75-7.17-1.51-7.93-2.27-.76-4.66,2.07-6,5.4-.74.13-1.46.35-2.17.68-.48-2.27-1.69-4.21-3.34-5.54.43-3.57-.33-7.21-2.68-7.62-2.37-.42-4.31,2.74-5.13,6.24-1.35.46-2.62,1.26-3.67,2.35-1.06-1.09-2.32-1.89-3.67-2.35C27.51,2.78,25.56-.38,23.2.04c-2.35.42-3.11,4.05-2.68,7.62-1.65,1.33-2.86,3.27-3.34,5.54-.7-.32-1.43-.54-2.17-.68-1.34-3.33-3.75-6.15-6-5.4-2.26.76-2.47,4.46-1.51,7.93-.69.75-1.27,1.62-1.69,2.62-.98,2.32-1.06,4.98-.21,7.49.36,1.08.88,2.09,1.54,2.99,1.22,1.67,2.05,3.09,2.61,4.47l.71,1.76c2.36,5.85,3.56,12.02,3.56,18.34v10.29c0,.55.45,1,1,1h34c.55,0,1-.45,1-1v-10.29c0-6.31,1.2-12.49,3.56-18.34l.71-1.76c.56-1.38,1.38-2.8,2.61-4.47.66-.9,1.18-1.91,1.54-2.99.85-2.51.77-5.17-.21-7.49Zm-3.84-8.65c.52.17,1.01,1.9.44,4.61-.53-.33-1.1-.61-1.71-.81-.61-.21-1.24-.33-1.87-.39,1.19-2.5,2.64-3.58,3.14-3.41Zm-13.91-7.01c.54.1,1.29,1.74,1.13,4.52-.58-.25-1.18-.46-1.82-.57-.63-.11-1.27-.13-1.9-.09.79-2.65,2.07-3.94,2.6-3.85Zm-16.91,0c.55-.1,1.81,1.19,2.6,3.85-.63-.04-1.27-.02-1.91.09-.64.11-1.24.32-1.82.57-.16-2.77.58-4.42,1.13-4.51Zm-13.91,7.01c.52-.18,1.96.91,3.14,3.41-.63.06-1.26.18-1.87.39-.61.2-1.18.48-1.71.81-.57-2.7-.08-4.43.44-4.61Zm46.88,15.5s0,0,0,0c-.3.89-.72,1.71-1.26,2.44-1.32,1.81-2.23,3.36-2.85,4.9l-.71,1.76c-2.46,6.09-3.71,12.52-3.71,19.09v9.29H16v-9.29c0-6.57-1.25-12.99-3.71-19.09l-.71-1.76c-.62-1.54-1.53-3.1-2.85-4.9-.54-.73-.96-1.55-1.26-2.44-.69-2.04-.63-4.2.16-6.07.39-.92.94-1.72,1.62-2.36,0,0,0,0,0,0,.66-.62,1.43-1.09,2.29-1.38,1.9-.64,4.03-.31,5.85.9.3.2.68.22,1,.07.32-.16.53-.47.56-.83.23-3.54,2.55-6.39,5.62-6.93,2.43-.42,4.96.67,6.62,2.85.38.5,1.21.5,1.59,0,1.66-2.18,4.19-3.27,6.62-2.85,3.08.54,5.39,3.39,5.63,6.93.02.36.24.67.56.83.32.16.7.13,1-.07,1.82-1.22,3.95-1.55,5.85-.9.86.29,1.63.76,2.29,1.38,0,0,0,0,0,0,.67.64,1.23,1.43,1.62,2.36.79,1.87.85,4.02.16,6.07Z"></path><path d="M16.07 17.54c-1.19-.77-2.53-.96-3.75-.55-1.22.41-2.16 1.37-2.65 2.71-.46 1.25-.45 2.7 0 4.08.46 1.37 1.34 2.53 2.46 3.25.78.5 1.63.76 2.46.76.43 0 .87-.07 1.28-.21 2.44-.82 3.62-3.86 2.64-6.78-.46-1.37-1.34-2.53-2.46-3.25zm-.82 8.14c-.63.21-1.35.09-2.03-.34-.74-.48-1.33-1.26-1.65-2.21h0c-.32-.95-.33-1.92-.03-2.75.27-.75.77-1.28 1.41-1.5.21-.07.42-.1.64-.1.46 0 .93.15 1.39.44.74.48 1.33 1.26 1.65 2.21.63 1.87.01 3.78-1.38 4.25zM42.46 35.62c-1-.82-1.65-1.72-1.96-2.67-1.31-4.09-4.81-6.94-8.51-6.94s-7.19 2.86-8.51 6.94c-.3.95-.96 1.85-1.96 2.67-1.79 1.49-2.73 3.76-2.5 6.09.34 3.48 3.36 6.25 6.86 6.3.03 0 .07 0 .1 0 .64 0 1.28-.09 1.9-.26 2.72-.77 5.49-.77 8.21 0 .65.18 1.33.27 2 .26 3.51-.05 6.52-2.82 6.86-6.3h0c.23-2.32-.71-4.6-2.5-6.09zm.51 5.89c-.25 2.48-2.4 4.46-4.9 4.49-.5.02-.96-.06-1.43-.19-3.04-.85-6.25-.85-9.29 0-.46.13-.93.2-1.43.19-2.5-.04-4.66-2.01-4.9-4.49-.16-1.66.5-3.29 1.79-4.35 1.29-1.07 2.16-2.28 2.59-3.6 1.05-3.27 3.76-5.56 6.6-5.56s5.55 2.28 6.6 5.56c.42 1.32 1.29 2.53 2.59 3.6 1.28 1.06 1.95 2.69 1.79 4.35z"></path></svg>